<?xml version="1.0" encoding="UTF-8" standalone="no"?>
<svg
   width="250"
   height="250"
   version="1.1"
   id="svg12"
   sodipodi:docname="Key2.svg"
   inkscape:version="1.1.1 (3bf5ae0d25, 2021-09-20)"
   xmlns:inkscape="http://www.inkscape.org/namespaces/inkscape"
   xmlns:sodipodi="http://sodipodi.sourceforge.net/DTD/sodipodi-0.dtd"
   xmlns="http://www.w3.org/2000/svg"
   xmlns:svg="http://www.w3.org/2000/svg">
  <defs
     id="defs16" />
  <sodipodi:namedview
     id="namedview14"
     pagecolor="#00ff91"
     bordercolor="#666666"
     borderopacity="1.0"
     inkscape:pageshadow="2"
     inkscape:pageopacity="0"
     inkscape:pagecheckerboard="0"
     showgrid="false"
     inkscape:zoom="2.6944444"
     inkscape:cx="131.93815"
     inkscape:cy="185.38145"
     inkscape:window-width="2560"
     inkscape:window-height="1369"
     inkscape:window-x="1432"
     inkscape:window-y="286"
     inkscape:window-maximized="1"
     inkscape:current-layer="layer1"
     showguides="false" />
  <g
     id="g845"
     transform="matrix(1.3059701,0,0,1.3059702,38.57836,24.981343)"
     style="stroke:#373737;stroke-opacity:1" />
  <g
     inkscape:groupmode="layer"
     id="layer1"
     inkscape:label="Layer 1"
     style="display:inline">
    <rect
       style="fill:#0095de;fill-opacity:1;stroke-width:115.876;stroke-linecap:round;stroke-linejoin:round"
       id="rect846"
       width="250"
       height="250"
       x="0"
       y="0" />
    <g
       id="g2390">
      <g
         id="g1003"
         transform="translate(-2.8453335,-8.81773)">
        <path
           id="path2723"
           style="color:#000000;fill:#efefef;stroke-linecap:round;-inkscape-stroke:none"
           d="m 81.25,67 c -6.937501,0 -12.5,5.625 -12.5,12.5 v 91 c 0,6.875 5.562499,12.5 12.5,12.5 h 55.66406 c -2.64855,-1.80636 -5.00987,-4.00224 -7.00976,-6.5 H 75.25 V 86 h 99.5 v 45.7168 c 2.49899,2.00653 4.69557,4.37485 6.5,7.03125 V 79.5 c 0,-6.875 -5.5625,-12.5 -12.5,-12.5 z m 46.08789,31 c -1.403,0 -2.86048,0.653876 -4.04687,1.822266 l -17.92188,17.337894 c -0.98751,0.84706 -1.44531,2.48799 -1.44531,3.64453 v 20.18945 c 0,1.14488 0.48716,2.7758 1.39648,3.55274 l 17.87305,17.29101 c 0.0574,0.0565 0.11091,0.0852 0.16797,0.13867 -0.29894,-1.74703 -0.46289,-3.53813 -0.46289,-5.36718 0,-8.47035 3.34607,-16.19041 8.77539,-21.91993 V 102.95312 C 131.67383,99.54757 129.42158,98 127.33789,98 Z m 22.9375,8.41211 c -0.5951,-0.0649 -1.1916,0.10934 -1.6582,0.48437 -0.97123,0.7805 -1.12599,2.20048 -0.34571,3.17188 3.50681,4.36522 5.72135,9.40247 6.67579,14.61914 1.5676,0.006 3.10903,0.12467 4.61718,0.35156 -0.95281,-6.35395 -3.53082,-12.51329 -7.77539,-17.79687 -0.37458,-0.4664 -0.91903,-0.76497 -1.51367,-0.83008 z m -5.77344,5.88086 c -0.59139,-0.0896 -1.19415,0.0594 -1.67578,0.41406 -1.00295,0.73903 -1.21715,2.15106 -0.47851,3.1543 2.2153,3.00545 3.65167,6.38516 4.34765,9.8789 1.43829,-0.38094 2.91719,-0.65773 4.42578,-0.83398 -0.8172,-4.14912 -2.51598,-8.16186 -5.14062,-11.72266 -0.35533,-0.48109 -0.88712,-0.80143 -1.47852,-0.89062 z m -49.828122,5.10156 C 92.09033,117.39453 90,119.42164 90,121.92773 v 17.94532 c 0,2.50604 2.09033,4.5332 4.673828,4.5332 h 6.888672 c -0.50584,-1.17428 -0.72266,-2.42491 -0.72266,-3.41211 v -20.18945 c 0,-0.98131 0.25359,-2.22427 0.77149,-3.41016 z m 42.660152,1.32031 c -0.29117,0.0553 -0.56859,0.1675 -0.8164,0.33008 -1.041,0.68367 -1.33122,2.08148 -0.64844,3.12305 1.43671,2.1889 2.22029,4.6533 2.42774,7.1543 1.36521,-0.83184 2.79912,-1.56096 4.2871,-2.1836 -0.45916,-2.60938 -1.43212,-5.1478 -2.9414,-7.44726 -0.32841,-0.50005 -0.84196,-0.84921 -1.42774,-0.97071 -0.29038,-0.0598 -0.58971,-0.0618 -0.88086,-0.006 z"
           transform="translate(2.8453335,8.81773)"
           sodipodi:nodetypes="sssscccccccssssccsscccscssccccccccccccccsssscsscscccccccc" />
      </g>
    </g>
    <g
       style="display:inline;fill:#000000;stroke-width:5.1224"
       id="g843"
       transform="matrix(2.1474309,0,0,2.1474309,131.86066,133.64566)">
      <path
         d="M 0,0 H 24 V 24 H 0 Z"
         fill="none"
         id="path825" />
      <g
         id="path1190">
        <g
           id="path1709">
          <g
             id="path2326">
            <path
               style="color:#000000;fill:#efefef;-inkscape-stroke:none"
               d="M 10.694,-1.612 C 3.901088,-1.612 -1.612,3.901088 -1.612,10.694 -1.612,17.486912 3.901088,23 10.694,23 17.486912,23 23,17.486912 23,10.694 23,3.901088 17.486912,-1.612 10.694,-1.612 Z m 0,22.1508 c -5.426946,0 -9.8448,-4.417854 -9.8448,-9.8448 0,-5.426946 4.417854,-9.8448 9.8448,-9.8448 5.426946,0 9.8448,4.417854 9.8448,9.8448 0,5.426946 -4.417854,9.8448 -9.8448,9.8448 z M 16.342454,5.254748 8.2328,13.364402 5.045546,10.189454 3.3104,11.9246 8.2328,16.847 18.0776,7.0022 Z"
               id="path3288" />
          </g>
        </g>
      </g>
    </g>
  </g>
</svg>
