<?xml version="1.0" encoding="UTF-8" standalone="no"?>
<svg
   width="250"
   height="250"
   version="1.1"
   id="svg12"
   sodipodi:docname="Key.svg"
   inkscape:version="1.1.1 (3bf5ae0d25, 2021-09-20)"
   xmlns:inkscape="http://www.inkscape.org/namespaces/inkscape"
   xmlns:sodipodi="http://sodipodi.sourceforge.net/DTD/sodipodi-0.dtd"
   xmlns="http://www.w3.org/2000/svg"
   xmlns:svg="http://www.w3.org/2000/svg">
  <defs
     id="defs16" />
  <sodipodi:namedview
     id="namedview14"
     pagecolor="#00ff91"
     bordercolor="#666666"
     borderopacity="1.0"
     inkscape:pageshadow="2"
     inkscape:pageopacity="0"
     inkscape:pagecheckerboard="0"
     showgrid="false"
     inkscape:zoom="3.8105199"
     inkscape:cx="126.62314"
     inkscape:cy="132.65906"
     inkscape:window-width="2560"
     inkscape:window-height="1369"
     inkscape:window-x="1432"
     inkscape:window-y="286"
     inkscape:window-maximized="1"
     inkscape:current-layer="layer4" />
  <g
     id="g845"
     transform="matrix(1.3059701,0,0,1.3059702,38.57836,24.981343)"
     style="stroke:#373737;stroke-opacity:1" />
  <g
     inkscape:groupmode="layer"
     id="layer1"
     inkscape:label="Layer 1"
     style="display:inline">
    <rect
       style="fill:#0095de;fill-opacity:1;stroke-width:39.6928;stroke-linecap:round;stroke-linejoin:round"
       id="rect850"
       width="250"
       height="250"
       x="0"
       y="0" />
    <path
       id="path6112"
       style="fill:#efefef;fill-opacity:1;stroke:none;stroke-width:2.16913;stroke-opacity:1"
       d="m 134.33984,75 c -2.00452,0 -4.08644,0.93448 -5.78125,2.60352 l -25.60351,24.76953 c -1.4109,1.21005 -2.06445,3.55469 -2.06445,5.20703 v 28.83984 c 0,1.63567 0.69704,3.96432 1.99609,5.07422 l 17.90039,17.31836 c 0.76101,-2.36162 2.05599,-4.58014 3.91406,-6.44141 l 4.76367,-4.77343 -0.18164,0.1914 c 2.98995,-3.32785 7.14906,-4.94633 11.25,-5.04687 V 82.07617 C 140.5332,77.21095 137.31654,75 134.33984,75 Z m -46.66406,27.70508 c -3.69071,0 -6.67578,2.89648 -6.67578,6.47656 v 25.63672 c 0,3.58008 2.98507,6.47656 6.67578,6.47656 h 9.8418 c -0.72264,-1.67743 -1.03125,-3.46464 -1.03125,-4.875 v -28.83984 c 0,-1.402 0.35977,-3.18093 1.09961,-4.875 z"
       sodipodi:nodetypes="sccssccccccsssssscsscs" />
  </g>
  <g
     inkscape:groupmode="layer"
     id="layer4"
     inkscape:label="Layer 3"
     style="display:inline">
    <g
       stroke-miterlimit="10"
       font-weight="none"
       font-size="none"
       text-anchor="none"
       style="font-family:none;display:inline;fill:none;stroke:#95ff37;stroke-width:15.2075;stroke-miterlimit:10;stroke-opacity:1"
       id="g6-5-7"
       transform="matrix(0.65700835,0,0,0.65813565,111.19752,68.384826)">
      <g
         id="path4-0-6"
         transform="translate(-38.360169,-10.004237)"
         style="stroke:#95ff37;stroke-opacity:1">
        <g
           id="path3927-1">
          <path
             style="color:#000000;fill:#efefef;fill-opacity:1;stroke:none;-inkscape-stroke:none"
             d="m 130.24688,101.20772 c -3.10795,-3.45328 -7.25189,-5.17992 -12.08649,-5.17992 -4.48927,0 -8.97853,1.72664 -12.08649,4.83459 l -7.251891,7.25189 c -5.870582,5.87058 -6.561242,14.84911 -2.071971,21.41035 l -3.453281,3.45328 c -2.762631,-1.38131 -6.215912,-2.4173 -9.669193,-2.4173 -4.489271,0 -8.978533,1.72664 -12.086494,5.17992 l -7.251892,7.25189 c -6.56124,6.56124 -6.56124,17.61174 0,24.17297 3.453281,3.10795 7.597222,4.83459 12.431814,4.83459 4.489271,0 8.978533,-1.72664 12.086494,-4.83459 l 7.251892,-7.25189 c 5.870582,-5.87058 6.561242,-14.84911 2.071971,-21.41035 l 3.453281,-3.45328 c 2.76263,1.38131 6.21591,2.4173 9.66919,2.4173 4.48927,0 8.97853,-1.72664 12.08649,-5.17992 l 7.25189,-7.25189 c 6.56124,-6.56124 6.56124,-17.26641 -0.34533,-23.82764 z m -39.367413,53.52587 -7.251893,7.25189 c -3.798611,3.79861 -10.359853,4.14394 -14.503785,0 -4.143941,-4.14394 -4.143941,-10.35985 0,-14.50378 l 7.597223,-6.90656 c 1.72664,-2.07197 4.489271,-3.10795 6.906562,-3.10795 1.381311,0 3.107951,0.34533 4.489272,1.03598 l -6.906563,6.90656 c -1.38131,1.38131 -1.38131,3.45328 0,4.83459 0.690661,0.69066 1.381311,1.03598 2.417301,1.03598 1.03598,0 1.726641,-0.34533 2.417301,-1.03598 l 6.906562,-6.90656 c 1.726641,3.79861 1.035981,8.28788 -2.07197,11.39583 z m 34.532823,-34.53282 -7.25189,7.25189 c -3.10795,3.10795 -7.59722,3.79861 -11.39583,2.07197 l 6.90656,-6.90656 c 1.38131,-1.38131 1.38131,-3.45328 0,-4.83459 -1.38131,-1.38131 -3.45328,-1.38131 -4.83459,0 l -6.90656,6.90656 c -1.72664,-3.79861 -1.03598,-8.28788 2.07197,-11.39583 l 7.25189,-7.25189 c 1.72664,-2.07197 4.48927,-3.10795 6.90656,-3.10795 2.76263,0 5.17992,1.03598 7.25189,3.10795 4.14394,3.79861 4.14394,10.35985 0,14.15846 z"
             id="path6064" />
        </g>
      </g>
    </g>
  </g>
</svg>
