<?xml version="1.0" encoding="UTF-8" standalone="no"?>
<svg
   viewBox="0 0 300 300"
   version="1.1"
   id="svg6"
   sodipodi:docname="Key0.svg"
   width="300"
   height="300"
   inkscape:version="1.1.1 (3bf5ae0d25, 2021-09-20)"
   xmlns:inkscape="http://www.inkscape.org/namespaces/inkscape"
   xmlns:sodipodi="http://sodipodi.sourceforge.net/DTD/sodipodi-0.dtd"
   xmlns="http://www.w3.org/2000/svg"
   xmlns:svg="http://www.w3.org/2000/svg">
  <defs
     id="defs10" />
  <sodipodi:namedview
     id="namedview8"
     pagecolor="#00ff91"
     bordercolor="#666666"
     borderopacity="1.0"
     inkscape:pageshadow="2"
     inkscape:pageopacity="0"
     inkscape:pagecheckerboard="false"
     showgrid="true"
     width="144px"
     inkscape:zoom="3.0865211"
     inkscape:cx="135.58955"
     inkscape:cy="164.4246"
     inkscape:window-width="2560"
     inkscape:window-height="1369"
     inkscape:window-x="1432"
     inkscape:window-y="286"
     inkscape:window-maximized="1"
     inkscape:current-layer="svg6"
     inkscape:lockguides="false"
     showguides="true">
    <inkscape:grid
       type="xygrid"
       id="grid842"
       empspacing="25"
       snapvisiblegridlinesonly="false"
       enabled="false" />
  </sodipodi:namedview>
  <rect
     style="fill:#0095de;fill-opacity:1;stroke:none;stroke-width:44.9965;stroke-linecap:round;stroke-linejoin:round"
     id="rect1071"
     width="300"
     height="300"
     x="0"
     y="0" />
  <g
     transform="matrix(0.60002864,0,0,0.59998001,89.999587,31.801536)"
     id="g6">
    <g
       id="g2866">
      <path
         id="circle2"
         style="color:#000000;fill:#efefef;stroke-width:0.600004;stroke-linejoin:round;-inkscape-stroke:none"
         d="M 150.00195,90 C 116.91685,90 90,116.91562 90,149.99805 c 0,33.08242 26.91685,59.99804 60.00195,59.99804 8.05341,0 15.73638,-1.60579 22.75977,-4.49609 h -2.1836 c -3.03667,-0.001 -5.49773,-2.46332 -5.49804,-5.5 v -1.26172 c -4.76371,1.46626 -9.82589,2.25781 -15.07813,2.25781 C 121.78104,200.99609 99,178.21667 99,149.99805 99,121.77942 121.78104,99 150.00195,99 c 3.90153,0 7.69397,0.448495 11.3418,1.27344 3.20752,-3.000618 7.32533,-5.026375 11.88477,-5.593752 C 166.08075,91.667794 158.2324,90 150.00195,90 Z m 25.83985,15.5 c -0.27593,0 -0.54661,0.0208 -0.81641,0.041 4.00543,2.25424 7.67795,5.02589 10.91602,8.23828 -0.90872,-4.78008 -5.01267,-8.2793 -10.09961,-8.2793 z m -25.83985,5.49805 c -21.54068,-5e-5 -39.00267,17.46107 -39.00195,39 3.7e-4,21.53816 17.46204,38.99809 39.00195,38.99804 4.26781,-0.0216 8.50314,-0.74338 12.53711,-2.13671 C 145.80133,181.24265 133.5,165.97399 133.5,147.36914 c 3.1e-4,-3.03744 2.46256,-5.4997 5.5,-5.5 h 10.52539 c 2.18402,0.007 4.15702,1.30546 5.02734,3.30859 v -29.38867 c 0,-1.52731 0.17199,-3.01619 0.48243,-4.45508 -1.66873,-0.22046 -3.34998,-0.33267 -5.03321,-0.33593 z m 15.66602,3.29492 c -0.0682,0.48851 -0.11524,0.98558 -0.11524,1.49609 v 31.58008 c 0,5.777 4.51209,10.28906 10.28907,10.28906 5.77698,0 10.29101,-4.51206 10.29101,-10.28906 v -12.01562 c -3.81692,-9.41816 -11.15962,-16.97459 -20.46484,-21.06055 z m 5.12695,63.86328 c 0.20519,0.0338 0.36965,0.16531 0.57617,0.19531 1.21991,0.28192 2.30714,0.9716 3.08203,1.95508 0.44646,-0.36652 0.88472,-0.74292 1.31446,-1.12891 -1.75557,-0.0205 -3.28777,-0.73877 -4.97266,-1.02148 z m 31.05664,1.98047 c -134.567707,-120.091147 -67.28385,-60.04557 0,0 z"
         transform="matrix(1.6665871,0,0,1.6667222,-149.99215,-53.004326)"
         sodipodi:nodetypes="sssccccsssccscccsccccccccsccccssscccccccccc" />
    </g>
  </g>
  <g
     id="g932"
     transform="matrix(5.2631429,0,0,5.2631578,112.68429,89.473684)"
     style="stroke:#00efef;stroke-opacity:1;stroke-linejoin:round;stroke-width:2.090003;stroke-miterlimit:4;stroke-dasharray:none">
    <g
       id="g924"
       style="stroke:#00efef;stroke-opacity:1;stroke-linejoin:round;stroke-width:2.090003;stroke-miterlimit:4;stroke-dasharray:none" />
    <g
       id="g930"
       style="stroke:#00efef;stroke-opacity:1;stroke-linejoin:round;stroke-width:2.090003;stroke-miterlimit:4;stroke-dasharray:none">
      <g
         id="path913">
        <path
           style="color:#000000;fill:#efefef;stroke:none;stroke-width:2.09;-inkscape-stroke:none"
           d="m 12,14 c 1.66,0 3,-1.34 3,-3 V 5 C 15,3.34 13.66,2 12,2 10.34,2 9,3.34 9,5 v 6 c 0,1.66 1.34,3 3,3 z"
           id="path2971" />
      </g>
      <g
         id="path910">
        <path
           style="color:#000000;fill:#efefef;stroke:none;stroke-width:2.09;-inkscape-stroke:none"
           d="m 17,11 c 0,2.76 -2.24,5 -5,5 C 9.24,16 7,13.76 7,11 H 5 c 0,3.53 2.61,6.43 6,6.92 V 21 h 2 v -3.08 c 3.39,-0.49 6,-3.39 6,-6.92 z"
           id="path2968" />
        <g
           id="g2871" />
      </g>
    </g>
  </g>
</svg>
