<svg xmlns="http://www.w3.org/2000/svg" viewBox="0 0 15.08 15.23">
    <defs>
        <style>path { fill: #ffffff; }</style>
    </defs>
    <title>Elgato Logo</title>
    <path d="M13.58,6.1c-.25-.54-.45-1.09-.74-1.59a6.08,6.08,0,1,0,.49,5.19c.06-.15,0-.22-.11-.31l-7-4L6,5.29V9.82l.18-.09L8.41,8.46a.27.27,0,0,1,.3,0c.37.23.76.44,1.16.67l-.17.11-3.48,2a.27.27,0,0,1-.34,0c-.34-.2-.68-.4-1-.59a.23.23,0,0,1-.15-.25V4.73a.24.24,0,0,1,.15-.25l1.06-.61a.23.23,0,0,1,.27,0l8.79,5a.18.18,0,0,1,.1.24,7.55,7.55,0,0,1-6.26,6,7.61,7.61,0,1,1,6-10c0,.14,0,.21-.1.29C14.32,5.66,13.94,5.9,13.58,6.1Z"/>
</svg>