<?xml version="1.0" encoding="UTF-8" standalone="no"?>
<svg
   xmlns:dc="http://purl.org/dc/elements/1.1/"
   xmlns:cc="http://creativecommons.org/ns#"
   xmlns:rdf="http://www.w3.org/1999/02/22-rdf-syntax-ns#"
   xmlns:svg="http://www.w3.org/2000/svg"
   xmlns="http://www.w3.org/2000/svg"
   xmlns:sodipodi="http://sodipodi.sourceforge.net/DTD/sodipodi-0.dtd"
   xmlns:inkscape="http://www.inkscape.org/namespaces/inkscape"
   viewBox="0 0 134 162"
   version="1.1"
   id="svg8"
   sodipodi:docname="SetAppAudio.svg"
   width="134"
   height="162"
   inkscape:version="0.92.4 (5da689c313, 2019-01-14)">
  <metadata
     id="metadata14">
    <rdf:RDF>
      <cc:Work
         rdf:about="">
        <dc:format>image/svg+xml</dc:format>
        <dc:type
           rdf:resource="http://purl.org/dc/dcmitype/StillImage" />
        <dc:title></dc:title>
      </cc:Work>
    </rdf:RDF>
  </metadata>
  <defs
     id="defs12" />
  <sodipodi:namedview
     pagecolor="#ffffff"
     bordercolor="#666666"
     borderopacity="1"
     objecttolerance="10"
     gridtolerance="10"
     guidetolerance="10"
     inkscape:pageopacity="0"
     inkscape:pageshadow="2"
     inkscape:window-width="2560"
     inkscape:window-height="1377"
     id="namedview10"
     showgrid="false"
     inkscape:zoom="5.4883721"
     inkscape:cx="130.02746"
     inkscape:cy="70.103398"
     inkscape:window-x="1432"
     inkscape:window-y="239"
     inkscape:window-maximized="1"
     inkscape:current-layer="svg8" />
  <g
     stroke-miterlimit="10"
     font-weight="none"
     font-size="none"
     text-anchor="none"
     style="font-family:none;mix-blend-mode:normal;fill:none;stroke-miterlimit:10"
     id="g6"
     transform="translate(-38.360169,-10.004237)">
    <path
       d="m 127.84437,10.965 c 3.95256,1.56864 6.31563,5.61558 6.31563,10.83063 v 78.16485 l -3.49188,3.49188 c -5.52525,5.52525 -7.94255,13.12247 -6.90656,20.37436 h -3.45328 c -6.56124,0 -12.43181,2.4173 -16.92108,6.90656 l -7.25189,7.25189 c -0.2835,0.2835 -0.55873,0.57388 -0.82561,0.87071 L 73.10001,118.29031 c -2.2188,-2.05368 -3.85145,-4.75704 -4.21265,-7.76016 -0.05504,-0.47472 -0.08735,-0.95637 -0.08735,-1.43109 V 62.60531 c 0,-0.40248 0.02574,-0.81657 0.0739,-1.23625 0.3612,-3.02376 2.01009,-5.74991 4.25297,-7.81391 l 42.53641,-39.10312 c 2.58516,-2.75802 5.89492,-4.23781 9.07703,-4.13203 1.0607,0.03526 2.10302,0.24682 3.10406,0.645 z M 63.70047,55.04 c -0.8256,1.77504 -1.43249,3.63049 -1.65953,5.53625 -0.07912,0.688 -0.12094,1.36858 -0.12094,2.02906 v 46.49375 c 0,0.74648 0.04494,1.50446 0.13437,2.24406 0.23048,1.93328 0.85,3.81431 1.70656,5.61687 H 48.15999 c -5.68976,0 -10.32,-4.63024 -10.32,-10.32 v -41.28 c 0,-5.68976 4.63024,-10.32 10.32,-10.32 z"
       id="path2"
       inkscape:connector-curvature="0"
       style="fill:#ffffff" />
    <path
       d="m 166.77608,101.20772 c -3.10795,-3.45328 -7.25189,-5.17992 -12.08649,-5.17992 -4.48927,0 -8.97853,1.72664 -12.08649,4.83459 l -7.25189,7.25189 c -5.87058,5.87058 -6.56124,14.84911 -2.07197,21.41035 l -3.45328,3.45328 c -2.76263,-1.38131 -6.21591,-2.4173 -9.66919,-2.4173 -4.48927,0 -8.97853,1.72664 -12.08649,5.17992 l -7.25189,7.25189 c -6.56124,6.56124 -6.56124,17.61174 0,24.17297 3.45328,3.10795 7.59722,4.83459 12.43181,4.83459 4.48927,0 8.97853,-1.72664 12.08649,-4.83459 l 7.25189,-7.25189 c 5.87058,-5.87058 6.56124,-14.84911 2.07197,-21.41035 l 3.45328,-3.45328 c 2.76263,1.38131 6.21591,2.4173 9.66919,2.4173 4.48927,0 8.97853,-1.72664 12.08649,-5.17992 l 7.25189,-7.25189 c 6.56124,-6.56124 6.56124,-17.26641 -0.34533,-23.82764 z m -39.36741,53.52587 -7.25189,7.25189 c -3.79861,3.79861 -10.35985,4.14394 -14.50378,0 -4.14394,-4.14394 -4.14394,-10.35985 0,-14.50378 l 7.59722,-6.90656 c 1.72664,-2.07197 4.48927,-3.10795 6.90656,-3.10795 1.38131,0 3.10795,0.34533 4.48927,1.03598 l -6.90656,6.90656 c -1.38131,1.38131 -1.38131,3.45328 0,4.83459 0.69066,0.69066 1.38131,1.03598 2.4173,1.03598 1.03598,0 1.72664,-0.34533 2.4173,-1.03598 l 6.90656,-6.90656 c 1.72664,3.79861 1.03598,8.28788 -2.07197,11.39583 z m 34.53282,-34.53282 -7.25189,7.25189 c -3.10795,3.10795 -7.59722,3.79861 -11.39583,2.07197 l 6.90656,-6.90656 c 1.38131,-1.38131 1.38131,-3.45328 0,-4.83459 -1.38131,-1.38131 -3.45328,-1.38131 -4.83459,0 l -6.90656,6.90656 c -1.72664,-3.79861 -1.03598,-8.28788 2.07197,-11.39583 l 7.25189,-7.25189 c 1.72664,-2.07197 4.48927,-3.10795 6.90656,-3.10795 2.76263,0 5.17992,1.03598 7.25189,3.10795 4.14394,3.79861 4.14394,10.35985 0,14.15846 z"
       id="path4"
       inkscape:connector-curvature="0"
       style="fill:#ffffff" />
  </g>
</svg>
