<svg xmlns="http://www.w3.org/2000/svg" viewBox="0 0 287.35 270.78">
    <defs>
        <style>
            .speaker { fill: #ffffff; }
            .star { fill: #f0c406; }
        </style>
    </defs>
    <title>Sound Deck Logo</title>
    <path class="star" d="M224.33,141.56l11.33,34.86a7.69,7.69,0,0,0,7.32,5.32h36.65a7.7,7.7,0,0,1,4.53,13.92L254.5,217.21a7.7,7.7,0,0,0-2.79,8.6L263,260.67a7.7,7.7,0,0,1-11.84,8.61l-29.65-21.55a7.7,7.7,0,0,0-9,0l-29.66,21.55A7.7,7.7,0,0,1,171,260.67l11.33-34.86a7.69,7.69,0,0,0-2.8-8.6l-29.65-21.55a7.69,7.69,0,0,1,4.52-13.92H191a7.69,7.69,0,0,0,7.32-5.32l11.33-34.86A7.7,7.7,0,0,1,224.33,141.56Z"/>
    <path class="speaker" d="M202.49,30.44l6.84-11.31A3.37,3.37,0,0,1,214,18c14.06,8.66,72.82,50.61,48.94,134.41-4.43,10.2-9.76,8.42-11.09,4.88s-4.16-11.13-4.87-13.75c-.54-2-1.33-4,.88-16.85,2.18-12.64,4.79-56.17-44.45-91.75A3.39,3.39,0,0,1,202.49,30.44Z"/>
    <path class="speaker" d="M206.73,113s1.72-23.36-26.19-41.91a3.1,3.1,0,0,1-.9-4.26c3.54-5.49,6.54-10,8.3-12.57a3.07,3.07,0,0,1,4.23-.86c8.59,5.61,35.68,26,34.84,59.6"/>
    <path class="speaker" d="M164,116.6c-.28,1.42-1.53,5.2-7.06,9.12a3.09,3.09,0,0,0-.84,4.2c3.76,5.86,6.38,9.79,7.86,12a3.09,3.09,0,0,0,3.91,1c5.19-2.6,16.83-10.26,16.83-26.92S173.09,91.69,167.9,89.1a3.09,3.09,0,0,0-3.91,1c-1.48,2.18-4.1,6.11-7.86,12a3.09,3.09,0,0,0,.84,4.2c5.53,3.92,6.78,7.7,7.06,9.12A2.88,2.88,0,0,1,164,116.6Z"/>
    <path class="speaker" d="M47,117.74v37a9.63,9.63,0,0,0,2.58,6.56l66.33,71.13a9.62,9.62,0,0,0,16.66-6.56V9.65a9.62,9.62,0,0,0-16.66-6.57L49.58,74.21A9.65,9.65,0,0,0,47,80.78Z"/>
    <path class="speaker" d="M28.82,117.74V77.87H18.35A18.36,18.36,0,0,0,0,96.23v43a18.36,18.36,0,0,0,18.35,18.35H28.82Z"/>
</svg>
