<?xml version="1.0" encoding="UTF-8" standalone="no"?>
<svg
   viewBox="0 0 250 250"
   version="1.1"
   id="svg14"
   sodipodi:docname="Key.svg"
   width="250"
   height="250"
   inkscape:version="1.1.1 (3bf5ae0d25, 2021-09-20)"
   xmlns:inkscape="http://www.inkscape.org/namespaces/inkscape"
   xmlns:sodipodi="http://sodipodi.sourceforge.net/DTD/sodipodi-0.dtd"
   xmlns="http://www.w3.org/2000/svg"
   xmlns:svg="http://www.w3.org/2000/svg">
  <defs
     id="defs18" />
  <sodipodi:namedview
     id="namedview16"
     pagecolor="#00ff91"
     bordercolor="#666666"
     borderopacity="1.0"
     inkscape:pageshadow="2"
     inkscape:pageopacity="0"
     inkscape:pagecheckerboard="0"
     showgrid="false"
     inkscape:zoom="4.365"
     inkscape:cx="100.2291"
     inkscape:cy="136.65521"
     inkscape:window-width="2560"
     inkscape:window-height="1369"
     inkscape:window-x="1432"
     inkscape:window-y="286"
     inkscape:window-maximized="1"
     inkscape:current-layer="svg14" />
  <rect
     style="fill:#0095de;fill-opacity:1;stroke:none;stroke-width:128.89;stroke-linecap:round;stroke-linejoin:round"
     id="rect845"
     width="250"
     height="250"
     x="0"
     y="0" />
  <g
     transform="matrix(0.5,0,0,0.5,75,26.5)"
     style="display:inline"
     id="g8">
    <path
       style="color:#000000;font-style:normal;font-variant:normal;font-weight:normal;font-stretch:normal;font-size:medium;line-height:normal;font-family:sans-serif;font-variant-ligatures:normal;font-variant-position:normal;font-variant-caps:normal;font-variant-numeric:normal;font-variant-alternates:normal;font-feature-settings:normal;text-indent:0;text-align:start;text-decoration:none;text-decoration-line:none;text-decoration-style:solid;text-decoration-color:#000000;letter-spacing:normal;word-spacing:normal;text-transform:none;writing-mode:lr-tb;direction:ltr;text-orientation:mixed;dominant-baseline:auto;baseline-shift:baseline;text-anchor:start;white-space:normal;shape-padding:0;clip-rule:nonzero;display:inline;overflow:visible;visibility:visible;opacity:1;isolation:auto;mix-blend-mode:normal;color-interpolation:sRGB;color-interpolation-filters:linearRGB;solid-color:#000000;solid-opacity:1;vector-effect:none;fill:#efefef;fill-opacity:1;fill-rule:nonzero;stroke:none;stroke-width:15.0154;stroke-linecap:butt;stroke-linejoin:round;stroke-miterlimit:4;stroke-dasharray:none;stroke-dashoffset:0;stroke-opacity:1;color-rendering:auto;image-rendering:auto;shape-rendering:auto;text-rendering:auto;enable-background:accumulate"
       d="M 100.18949,97 C 44.945802,97 0,141.86822 0,197.01654 0,251.30231 43.550721,295.62674 97.60492,297 93.602253,292.56092 91.238917,287.11677 90.514947,281.49039 47.96869,276.71287 15.028528,240.79071 15.028528,197.01654 c 0,-47.04039 38.039228,-85.01395 85.160962,-85.01395 44.92345,0 81.59153,34.51292 84.91504,78.49234 4.24306,-3.71815 10.11724,-4.22601 14.89547,-2.20487 C 195.55663,137.21233 152.48818,97 100.18949,97 Z"
       id="path2" />
    <path
       style="opacity:1;fill:#efefef;fill-opacity:1;stroke:none;stroke-width:228.558;stroke-linecap:butt;stroke-linejoin:round;stroke-miterlimit:4;stroke-dasharray:none;stroke-opacity:1"
       d="m 377.95312,132.2832 c -135.67989,-3.5e-4 -245.67027,109.99003 -245.66992,245.66992 0.10773,128.09469 98.61975,234.60846 226.31641,244.69922 4.52809,-6.82485 9.90243,-13.22904 16.13477,-19.04882 21.16143,-19.76039 47.83768,-29.11584 74.72656,-30.35352 L 371.29492,500.25781 C 349.55924,479.96096 338.5535,449.97134 343.06641,420.33398 v -0.0156 l 5.55078,-36.27539 c 0.001,-0.008 0.007,-0.01 0.008,-0.0137 v -0.0156 c 1.59326,-10.41743 6.69366,-20.18454 13.11719,-27.07812 9.86845,-10.59086 23.0738,-16.41582 36.58398,-17 13.51023,-0.58419 27.32786,4.07015 38.42383,14.43164 l 130.17188,121.56445 51.53515,-48.12109 c 3.4167,-16.39961 5.14705,-33.10569 5.16406,-49.85743 C 623.62144,242.27399 513.63225,132.28393 377.95312,132.2832 Z"
       transform="matrix(0.26458333,0,0,0.26458333,0,97)"
       id="path4" />
    <g
       style="opacity:1;fill:#373737;fill-opacity:1;stroke:#ff3737;stroke-opacity:0.974874"
       transform="matrix(3.4900805,-3.2822585,3.4902059,3.2823766,112.20622,167.88369)"
       id="g6" />
  </g>
  <g
     style="display:inline"
     id="g12"
     transform="matrix(0.5,0,0,0.5,75,75)">
    <path
       d="m 103.02716,101.25616 c -0.46314,0.49702 -0.79004,1.11932 -0.90285,1.86019 l -1.46879,9.60211 c -0.689647,4.52914 0.9437,9.0981 4.40717,12.33229 l 22.92356,21.40612 14.67513,-13.7037 -33.93031,-31.68427 c -1.70055,-1.587974 -4.31453,-1.303828 -5.70391,0.18726 z m 2.94639,65.75627 c -7.964939,7.43769 -7.964698,19.96995 5.2e-4,27.4079 7.9652,7.43796 21.38587,7.43819 29.35081,5.6e-4 5.29985,-4.94903 6.99111,-12.13667 5.23778,-18.59527 l 9.43708,-8.81239 9.43742,8.81271 c -1.75308,6.45854 -0.0615,13.64623 5.2385,18.59544 7.96522,7.43795 21.38587,7.43818 29.35082,5.5e-4 7.96491,-7.43768 7.96467,-19.96995 -5.7e-4,-27.40789 -5.30005,-4.94922 -12.99727,-6.52879 -19.91363,-4.89174 l -9.4374,-8.81283 30.2603,-28.25721 c 3.46333,-3.23407 5.09651,-7.80298 4.40668,-12.33214 l -1.46917,-9.60216 c -0.45131,-2.96349 -4.33951,-4.1649 -6.60683,-2.04767 l -65.37887,61.05107 c -6.91644,-1.63727 -14.61359,-0.0579 -19.91344,4.89107 z m 7.33782,6.85209 c 3.91459,-3.65546 10.76067,-3.65533 14.67541,2.5e-4 3.91473,3.6556 3.91485,10.04849 2.6e-4,13.70396 -3.9146,3.65546 -10.76067,3.65535 -14.6754,-2.4e-4 -3.91473,-3.6556 -3.91487,-10.04849 -2.7e-4,-13.70397 z m 33.01919,-23.98135 c 2.02517,-1.89111 5.31245,-1.89106 7.3377,1.2e-4 2.02524,1.89118 2.0253,4.96086 1.3e-4,6.85198 -2.02516,1.89111 -5.31246,1.89105 -7.3377,-1.3e-4 -2.02525,-1.89117 -2.0253,-4.96086 -1.3e-4,-6.85197 z m 25.68242,23.98235 c 3.91457,-3.65547 10.76065,-3.65535 14.67538,2.5e-4 3.91474,3.65559 3.91487,10.04849 2.7e-4,13.70395 -3.91459,3.65546 -10.76067,3.65535 -14.6754,-2.5e-4 -3.91473,-3.65559 -3.91485,-10.04849 -2.5e-4,-13.70395 z"
       style="display:inline;opacity:1;fill:#efefef;fill-opacity:1;stroke:#ff37fa;stroke-width:0;stroke-miterlimit:4;stroke-dasharray:none;stroke-opacity:1"
       id="path10" />
  </g>
</svg>
