<?xml version="1.0" encoding="UTF-8" standalone="no"?>
<svg
   xmlns:dc="http://purl.org/dc/elements/1.1/"
   xmlns:cc="http://creativecommons.org/ns#"
   xmlns:rdf="http://www.w3.org/1999/02/22-rdf-syntax-ns#"
   xmlns:svg="http://www.w3.org/2000/svg"
   xmlns="http://www.w3.org/2000/svg"
   xmlns:sodipodi="http://sodipodi.sourceforge.net/DTD/sodipodi-0.dtd"
   xmlns:inkscape="http://www.inkscape.org/namespaces/inkscape"
   viewBox="0 0 27 32"
   version="1.1"
   id="svg5"
   sodipodi:docname="sampler-clear.svg"
   inkscape:version="0.92.4 (5da689c313, 2019-01-14)">
  <metadata
     id="metadata11">
    <rdf:RDF>
      <cc:Work
         rdf:about="">
        <dc:format>image/svg+xml</dc:format>
        <dc:type
           rdf:resource="http://purl.org/dc/dcmitype/StillImage" />
        <dc:title></dc:title>
      </cc:Work>
    </rdf:RDF>
  </metadata>
  <defs
     id="defs9" />
  <sodipodi:namedview
     pagecolor="#ffffff"
     bordercolor="#666666"
     borderopacity="1"
     objecttolerance="10"
     gridtolerance="10"
     guidetolerance="10"
     inkscape:pageopacity="0"
     inkscape:pageshadow="2"
     inkscape:window-width="2560"
     inkscape:window-height="1377"
     id="namedview7"
     showgrid="false"
     inkscape:zoom="29.5"
     inkscape:cx="15.330105"
     inkscape:cy="15.991132"
     inkscape:window-x="1072"
     inkscape:window-y="67"
     inkscape:window-maximized="1"
     inkscape:current-layer="svg5"
     inkscape:snap-page="false" />
  <g
     id="surface21678067"
     transform="matrix(1.35,0,0,1.3333333,-9.4500003,-5.3333338)">
    <path
       style="fill:#353535;fill-opacity:1;fill-rule:nonzero;stroke:none"
       d="M 15,4 C 14.476562,4 13.941406,4.183594 13.5625,4.5625 13.183594,4.941406 13,5.476562 13,6 V 7 H 7 v 2 h 1 v 16 c 0,1.644531 1.355469,3 3,3 h 12 c 1.644531,0 3,-1.355469 3,-3 V 9 h 1 V 7 H 21 V 6 C 21,5.476562 20.816406,4.941406 20.4375,4.5625 20.058594,4.183594 19.523438,4 19,4 Z m 0,2 h 4 v 1 h -4 z m -5,3 h 14 v 16 c 0,0.554688 -0.445312,1 -1,1 H 11 c -0.554688,0 -1,-0.445312 -1,-1 z m 2,3 v 11 h 2 V 12 Z m 4,0 v 11 h 2 V 12 Z m 4,0 v 11 h 2 V 12 Z m 0,0"
       id="path2"
       inkscape:connector-curvature="0" />
  </g>
</svg>
