<?xml version="1.0" encoding="UTF-8" standalone="no"?>
<svg
   xmlns:dc="http://purl.org/dc/elements/1.1/"
   xmlns:cc="http://creativecommons.org/ns#"
   xmlns:rdf="http://www.w3.org/1999/02/22-rdf-syntax-ns#"
   xmlns:svg="http://www.w3.org/2000/svg"
   xmlns="http://www.w3.org/2000/svg"
   xmlns:sodipodi="http://sodipodi.sourceforge.net/DTD/sodipodi-0.dtd"
   xmlns:inkscape="http://www.inkscape.org/namespaces/inkscape"
   viewBox="0 0 200 200"
   version="1.1"
   id="svg4580"
   sodipodi:docname="sampler.svg"
   inkscape:version="0.92.4 (5da689c313, 2019-01-14)">
  <metadata
     id="metadata4586">
    <rdf:RDF>
      <cc:Work
         rdf:about="">
        <dc:format>image/svg+xml</dc:format>
        <dc:type
           rdf:resource="http://purl.org/dc/dcmitype/StillImage" />
      </cc:Work>
    </rdf:RDF>
  </metadata>
  <defs
     id="defs4584" />
  <sodipodi:namedview
     pagecolor="#ffffff"
     bordercolor="#666666"
     borderopacity="1"
     objecttolerance="10"
     gridtolerance="10"
     guidetolerance="10"
     inkscape:pageopacity="0"
     inkscape:pageshadow="2"
     inkscape:window-width="2560"
     inkscape:window-height="1377"
     id="namedview4582"
     showgrid="false"
     inkscape:zoom="0.73625"
     inkscape:cx="236.48379"
     inkscape:cy="-125.21871"
     inkscape:window-x="1072"
     inkscape:window-y="67"
     inkscape:window-maximized="1"
     inkscape:current-layer="svg4580" />
  <g
     transform="translate(0,-97)"
     id="g4578">
    <circle
       r="92.499313"
       cy="196.99998"
       cx="100"
       style="opacity:1;fill:none;fill-opacity:1;stroke:#373737;stroke-width:15;stroke-linecap:butt;stroke-linejoin:round;stroke-miterlimit:4;stroke-dasharray:none;stroke-opacity:1"
       id="circle4574" />
    <path
       style="opacity:1;fill:#373737;fill-opacity:1;stroke:none;stroke-width:60.47258759;stroke-linecap:butt;stroke-linejoin:round;stroke-miterlimit:4;stroke-dasharray:none;stroke-opacity:1"
       d="M 100 35 A 65 65 0 0 0 35 100 A 65 65 0 0 0 100 165 A 65 65 0 0 0 165 100 A 65 65 0 0 0 100 35 z M 75.042969 69 C 75.855469 69 76.565234 69.202472 77.255859 69.541016 L 133.80664 97.589844 C 135.14727 98.537755 136 99.925785 136 101.5 C 136 103.07422 135.14727 104.47916 133.80664 105.41016 L 77.316406 133.42383 C 76.564843 133.76237 75.875782 134 75.042969 134 C 72.828907 134 71.019531 132.47721 71.019531 130.61523 L 71 130.61523 L 71 72.384766 L 71.019531 72.384766 C 71.019531 70.522785 72.828907 69 75.042969 69 z "
       transform="translate(0,97)"
       id="circle4576" />
  </g>
  <g
     inkscape:groupmode="layer"
     id="layer6"
     inkscape:label="Layer 1"
     style="display:inline">
    <g
       id="g7323"
       transform="matrix(0.325,0,0,0.325,71,37.475)"
       style="fill:#ff3737;fill-opacity:1" />
  </g>
</svg>
