<svg width="134" height="162" xmlns="http://www.w3.org/2000/svg">
  <g stroke-miterlimit="10" font-weight="none" font-size="none" text-anchor="none" style="font-family:none;mix-blend-mode:normal;fill:none;stroke-miterlimit:10">
    <path d="M127.84437 10.965c3.95256 1.56864 6.31563 5.61558 6.31563 10.83063v78.16485l-3.49188 3.49188c-5.52525 5.52525-7.94255 13.12247-6.90656 20.37436h-3.45328c-6.56124 0-12.43181 2.4173-16.92108 6.90656l-7.25189 7.25189c-.2835.2835-.55873.57388-.82561.87071l-22.20969-20.56557c-2.2188-2.05368-3.85145-4.75704-4.21265-7.76016-.05504-.47472-.08735-.95637-.08735-1.43109V62.60531c0-.40248.02574-.81657.0739-1.23625.3612-3.02376 2.01009-5.74991 4.25297-7.81391l42.53641-39.10312c2.58516-2.75802 5.89492-4.23781 9.07703-4.13203 1.0607.03526 2.10302.24682 3.10406.645zM63.70047 55.04c-.8256 1.77504-1.43249 3.63049-1.65953 5.53625-.07912.688-.12094 1.36858-.12094 2.02906v46.49375c0 .74648.04494 1.50446.13437 2.24406.23048 1.93328.85 3.81431 1.70656 5.61687H48.15999c-5.68976 0-10.32-4.63024-10.32-10.32v-41.28c0-5.68976 4.63024-10.32 10.32-10.32z" style="fill:#373737" transform="translate(-38.360169 -10.004237)"/>
    <path d="M166.77608 101.20772c-3.10795-3.45328-7.25189-5.17992-12.08649-5.17992-4.48927 0-8.97853 1.72664-12.08649 4.83459l-7.25189 7.25189c-5.87058 5.87058-6.56124 14.84911-2.07197 21.41035l-3.45328 3.45328c-2.76263-1.38131-6.21591-2.4173-9.66919-2.4173-4.48927 0-8.97853 1.72664-12.08649 5.17992l-7.25189 7.25189c-6.56124 6.56124-6.56124 17.61174 0 24.17297 3.45328 3.10795 7.59722 4.83459 12.43181 4.83459 4.48927 0 8.97853-1.72664 12.08649-4.83459l7.25189-7.25189c5.87058-5.87058 6.56124-14.84911 2.07197-21.41035l3.45328-3.45328c2.76263 1.38131 6.21591 2.4173 9.66919 2.4173 4.48927 0 8.97853-1.72664 12.08649-5.17992l7.25189-7.25189c6.56124-6.56124 6.56124-17.26641-.34533-23.82764zm-39.36741 53.52587-7.25189 7.25189c-3.79861 3.79861-10.35985 4.14394-14.50378 0-4.14394-4.14394-4.14394-10.35985 0-14.50378l7.59722-6.90656c1.72664-2.07197 4.48927-3.10795 6.90656-3.10795 1.38131 0 3.10795.34533 4.48927 1.03598l-6.90656 6.90656c-1.38131 1.38131-1.38131 3.45328 0 4.83459.69066.69066 1.38131 1.03598 2.4173 1.03598 1.03598 0 1.72664-.34533 2.4173-1.03598l6.90656-6.90656c1.72664 3.79861 1.03598 8.28788-2.07197 11.39583zm34.53282-34.53282-7.25189 7.25189c-3.10795 3.10795-7.59722 3.79861-11.39583 2.07197l6.90656-6.90656c1.38131-1.38131 1.38131-3.45328 0-4.83459-1.38131-1.38131-3.45328-1.38131-4.83459 0l-6.90656 6.90656c-1.72664-3.79861-1.03598-8.28788 2.07197-11.39583l7.25189-7.25189c1.72664-2.07197 4.48927-3.10795 6.90656-3.10795 2.76263 0 5.17992 1.03598 7.25189 3.10795 4.14394 3.79861 4.14394 10.35985 0 14.15846z" style="fill:#373737;stroke-width:5.90000048;stroke-miterlimit:4;stroke-dasharray:none" transform="translate(-38.360169 -10.004237)"/>
  </g>
  <g style="stroke:#373737;stroke-opacity:1">
    <path style="color:#000;fill:#373737;stroke:none;stroke-width:1.26336;stroke-linecap:round;-inkscape-stroke:none" d="M120.30469 36.537109c-.83244-.09126-1.66705.151821-2.32031.675782-1.36063 1.092478-1.57753 3.081319-.48438 4.441406 9.18821 11.43729 12.11087 26.155665 8.78125 39.685547 2.00724.933661 3.87969 2.148839 5.54883 3.644531 4.64596-15.968687 1.51421-33.693537-9.40625-47.287109-.52472-.652277-1.28692-1.06956-2.11914-1.160157zm-8.08203 8.226563c-.82815-.124655-1.6719.0847-2.34571.582031-1.40253 1.034961-1.70147 3.010463-.66797 4.414063 6.37257 8.645457 8.24775 19.488344 5.63868 29.43164.49359-.02885.98678-.06836 1.48242-.06836 1.65573 0 3.29888.183451 4.9043.521484 2.64239-11.43422.33176-23.761617-6.94141-33.628906-.49657-.675572-1.24139-1.125975-2.07031-1.251953zm-10.03125 8.992187c-.40743.07715-.79567.233777-1.14258.460938-1.45949.956938-1.866218 2.916211-.90821 4.375 4.70074 7.161879 4.70074 16.40648 0 23.568359-.614162.971286-.652306 2.199507-.0996 3.207032 2.34951-2.167677 5.07355-3.770452 8-4.806641 3.26368-8.290411 2.39198-17.797791-2.6211-25.435547-.70068-1.066785-1.97456-1.607008-3.22851-1.369141zm26.05273 37.195313c.0348.03189.0574.07139.0918.103516.0385.03777.0869.06539.125.103515z" transform="matrix(1 0 0 1 2.2e-7 1.8e-7)" stroke="none"/>
  </g>
</svg>
