<svg xmlns="http://www.w3.org/2000/svg" viewBox="0 0 250 203">
   <defs>
      <style>path { fill: #1da1f2; }</style>
   </defs>
   <title>Twitter Logo</title>
   <path d="m 78.62,203 c 94.34,0 145.94,-78.16 145.94,-145.94 0,-2.22 0,-4.43 -0.15,-6.63 A 104.36,104.36 0 0 0 250,23.88 102.38,102.38 0 0 1 220.54,31.95 51.47,51.47 0 0 0 243.09,3.58 102.79,102.79 0 0 1 210.52,16.03 51.34,51.34 0 0 0 123.11,62.81 145.62,145.62 0 0 1 17.4,9.22 51.33,51.33 0 0 0 33.28,77.69 50.91,50.91 0 0 1 10,71.27 c 0,0.21 0,0.43 0,0.65 a 51.31,51.31 0 0 0 41.15,50.28 51.21,51.21 0 0 1 -23.16,0.88 51.35,51.35 0 0 0 47.92,35.62 102.92,102.92 0 0 1 -63.7,22 104.41,104.41 0 0 1 -12.21,-0.74 145.21,145.21 0 0 0 78.62,23" />
</svg>
