<?xml version="1.0" encoding="UTF-8" standalone="no"?>
<svg
   width="250"
   height="250"
   version="1.1"
   id="svg8"
   sodipodi:docname="Key.svg"
   inkscape:version="1.1.1 (3bf5ae0d25, 2021-09-20)"
   xmlns:inkscape="http://www.inkscape.org/namespaces/inkscape"
   xmlns:sodipodi="http://sodipodi.sourceforge.net/DTD/sodipodi-0.dtd"
   xmlns="http://www.w3.org/2000/svg"
   xmlns:svg="http://www.w3.org/2000/svg">
  <defs
     id="defs12" />
  <sodipodi:namedview
     id="namedview10"
     pagecolor="#00ff91"
     bordercolor="#666666"
     borderopacity="1.0"
     inkscape:pageshadow="2"
     inkscape:pageopacity="0"
     inkscape:pagecheckerboard="0"
     showgrid="false"
     inkscape:zoom="2.4922253"
     inkscape:cx="38.720416"
     inkscape:cy="146.65608"
     inkscape:window-width="2560"
     inkscape:window-height="1369"
     inkscape:window-x="1432"
     inkscape:window-y="286"
     inkscape:window-maximized="1"
     inkscape:current-layer="svg8" />
  <rect
     style="fill:#0095de;fill-opacity:1;stroke:none;stroke-width:128.89;stroke-linecap:round;stroke-linejoin:round"
     id="rect845"
     width="250"
     height="250"
     x="0"
     y="0" />
  <g
     style="fill:#efefef;fill-opacity:1"
     id="g4"
     transform="matrix(0.5,0,0,0.5,75,74)">
    <path
       d="M 193.25,184.96876 19.250005,98.666672 c -2.125002,-1.041673 -4.3125,-1.666673 -6.812502,-1.666673 -6.8124985,0 -12.37499907,4.687501 -12.37499907,10.416671 H 0 V 286.58334 H 0.06250393 C 0.06250393,292.3125 5.6250045,297 12.437503,297 c 2.562501,0 4.6875,-0.72916 7.000002,-1.77083 L 193.25,209.03126 C 197.375,206.16667 200,201.84376 200,197 c 0,-4.84374 -2.625,-9.11459 -6.75,-12.03124 z"
       style="fill:#efefef;fill-opacity:1;stroke-width:0.570544"
       transform="matrix(0.625,0,0,0.8,0,-57.599999)"
       id="path2" />
  </g>
  <path
     style="fill:#efefef;fill-opacity:1;stroke:#efefef;stroke-width:12.5;stroke-linecap:round;stroke-linejoin:round;stroke-miterlimit:4;stroke-dasharray:none;stroke-opacity:1"
     d="m 148.75,90.25 v 69.8512 m 20,-69.8512 v 69.73458"
     id="path6" />
</svg>
