<svg version="1.1" xmlns="http://www.w3.org/2000/svg" xmlns:xlink="http://www.w3.org/1999/xlink" viewBox="0 0 172 172"><g fill="none" fill-rule="nonzero" stroke="none" stroke-width="1" stroke-linecap="butt" stroke-linejoin="miter" stroke-miterlimit="10" stroke-dasharray="" stroke-dashoffset="0" font-family="none" font-weight="none" font-size="none" text-anchor="none" style="mix-blend-mode: normal"><path d="M0,172v-172h172v172z" fill="none"></path><g fill="#8e8e92"><path d="M142.61667,95.31667c0.71667,-3.58333 0.71667,-6.45 0.71667,-9.31667c0,-2.86667 0,-5.73333 -0.71667,-9.31667l13.61667,-12.18333l-16.48333,-28.66667l-17.2,5.73333c-5.01667,-3.58333 -10.03333,-7.16667 -15.76667,-9.31667l-4.3,-17.91667h-32.96667l-3.58333,17.91667c-6.45,2.15 -11.46667,5.73333 -16.48333,9.31667l-17.2,-5.73333l-16.48333,28.66667l13.61667,12.18333c-0.71667,3.58333 -0.71667,6.45 -0.71667,9.31667c0,2.86667 0,5.73333 0.71667,9.31667l-13.61667,12.18333l16.48333,28.66667l17.2,-5.73333v0c5.01667,3.58333 10.03333,7.16667 15.76667,9.31667l4.3,17.91667h33.68333l3.58333,-17.91667c5.73333,-2.15 11.46667,-5.01667 15.76667,-9.31667v0l17.2,5.73333l16.48333,-28.66667l-13.61667,-12.18333zM86,114.66667c-15.76667,0 -28.66667,-12.9 -28.66667,-28.66667c0,-15.76667 12.9,-28.66667 28.66667,-28.66667c15.76667,0 28.66667,12.9 28.66667,28.66667c0,15.76667 -12.9,28.66667 -28.66667,28.66667z"></path></g></g></svg>