<svg version="1.1" xmlns="http://www.w3.org/2000/svg" xmlns:xlink="http://www.w3.org/1999/xlink" viewBox="0 0 172 172"><g fill="none" fill-rule="nonzero" stroke="none" stroke-width="1" stroke-linecap="butt" stroke-linejoin="miter" stroke-miterlimit="10" stroke-dasharray="" stroke-dashoffset="0" font-family="none" font-weight="none" font-size="none" text-anchor="none" style="mix-blend-mode: normal"><path d="M0,172v-172h172v172z" fill="none"></path><g fill="#8e8e92"><path d="M108.27686,25.44727c-0.47251,-0.00074 -0.94717,0.03389 -1.42074,0.09798c-1.89426,0.25636 -3.76256,1.03791 -5.30501,2.40755c0,0.00233 0,0.00467 0,0.007l-33.04785,29.37354h-23.71159c-8.84188,0 -16.125,7.28312 -16.125,16.125v25.08333c0,8.84188 7.28312,16.125 16.125,16.125h23.71159l33.04785,29.37354c3.08455,2.74223 7.45912,3.14571 10.77099,1.65869c3.31188,-1.48702 5.9279,-5.02662 5.9279,-9.1543v-101.08919c0,-4.12608 -2.60878,-7.66674 -5.9209,-9.1543c-1.24204,-0.55783 -2.63472,-0.85163 -4.05224,-0.85384zM133.19922,60.90267c-1.80151,0.07689 -3.44447,1.05188 -4.37507,2.59632c-0.93061,1.54444 -1.02489,3.45259 -0.25107,5.08125c5.43426,11.89111 5.42676,23.00911 -0.02799,34.90251c-0.81398,1.74726 -0.63013,3.79659 0.48184,5.37106c1.11197,1.57448 2.98184,2.43306 4.9007,2.25025c1.91886,-0.18281 3.59297,-1.37903 4.38763,-3.13515c6.58521,-14.3581 6.59761,-29.50044 0.03499,-43.86084c-0.89239,-2.02789 -2.93753,-3.30054 -5.15104,-3.2054z"></path></g></g></svg>